<?xml version="1.0" encoding="utf-8"?>
<!-- Generator: Adobe Illustrator 21.0.2, SVG Export Plug-In . SVG Version: 6.00 Build 0)  -->
<svg version="1.1" id="Layer_1" xmlns="http://www.w3.org/2000/svg" xmlns:xlink="http://www.w3.org/1999/xlink" x="0px" y="0px"
	 viewBox="0 0 256 256" style="enable-background:new 0 0 256 256;" xml:space="preserve">
<style type="text/css">
	.st0{fill:#157FC4;}
	.st1{fill:#FFFFFF;}
</style>
<path class="st0" d="M230.6,2H24.9C13.4,2,4,11.4,4,22.9v156.9V253l49-52.3h177.6c11.5,0,20.9-9.4,20.9-20.9V22.9
	C251.5,11.4,242.1,2,230.6,2z"/>
<g>
	<path class="st1" d="M76,148.9H59.2V37.3h47.9v16.8H76v30.6h22.7v16.8H76V148.9z"/>
</g>
<g>
	<path class="st1" d="M96.6,134.4l-2.4,14.8H84.1l10.9-64.5h13.4l10.8,64.5h-10.2l-2.3-14.8H96.6z M101.7,99.4l-3.6,25.4h7.2
		L101.7,99.4z"/>
</g>
<g>
	<path class="st1" d="M147.3,130.8c0,2.6-0.6,5-1.9,7.3c0.8,0.9,1.9,1.4,3.4,1.4v8.5c-4.6,0-7.7-1.4-9.3-4.3c-2,1.1-4.2,1.7-6.6,1.7
		c-4,0-7.4-1.4-10.2-4.2c-2.8-2.8-4.2-6.2-4.2-10.2v-33c0-4,1.4-7.4,4.2-10.3c2.8-2.8,6.2-4.2,10.2-4.2c4,0,7.4,1.4,10.2,4.3
		c2.8,2.9,4.2,6.3,4.2,10.2V130.8z M137.8,97.6c0-1.5-0.5-2.7-1.5-3.7s-2.3-1.5-3.7-1.5c-1.4,0-2.7,0.5-3.7,1.5s-1.5,2.2-1.5,3.7
		v33.1c0,1.4,0.5,2.7,1.5,3.7s2.2,1.5,3.7,1.5c1.5,0,2.7-0.5,3.7-1.5s1.5-2.2,1.5-3.7V97.6z"/>
</g>
<g>
	<path class="st1" d="M165,35.9c9,0,15.8,3.2,20.5,9.7c3.7,5.1,5.5,11.1,5.5,18c0,11.5-5.2,22.5-15.6,32.9
		c-3.6,3.6-5.5,7.8-5.8,12.6c-0.1,1.6-0.2,3.4-0.2,5.4v5.9h-16.8v-5.9c0-10.5,2.6-18.3,7.7-23.4c5.6-5.5,9.4-11.2,11.5-17
		c1.2-3.4,1.8-6.9,1.8-10.6c0-3.9-0.9-6.9-2.6-9.1c-1.9-2.5-4.7-3.6-8.3-3.1c-3.4,0.4-5.8,2.8-7.3,7c-0.7,1.8-1.1,3.9-1.3,6.2
		l-16.2-2.8c0.6-7,2.9-12.8,6.9-17.6c2.7-3.2,6.5-5.5,11.4-6.9C158.7,36.3,161.6,35.9,165,35.9z M152.5,132.1h16.8v16.8h-16.8V132.1
		z"/>
</g>
</svg>
